<?xml version="1.0" standalone="no"?>
<!DOCTYPE svg PUBLIC "-//W3C//DTD SVG 20010904//EN"
 "http://www.w3.org/TR/2001/REC-SVG-20010904/DTD/svg10.dtd">
<svg version="1.0" xmlns="http://www.w3.org/2000/svg"
 width="1800.000000pt" height="1800.000000pt" viewBox="0 0 1800.000000 1800.000000"
 preserveAspectRatio="xMidYMid meet">
<metadata>
Created by potrace 1.11, written by Peter Selinger 2001-2013
</metadata>
<g transform="translate(0.000000,1800.000000) scale(0.100000,-0.100000)"
fill="#000000" stroke="none">
<path d="M0 9000 l0 -9000 9000 0 9000 0 0 9000 0 9000 -9000 0 -9000 0 0
-9000z m10705 5744 l1761 -1919 -862 -5 -861 -5 923 -1915 923 -1915 1 -3153
0 -3152 157 -257 c86 -141 156 -262 156 -268 0 -9 -668 -1114 -717 -1187 -10
-14 -69 77 -366 564 -195 319 -360 591 -367 603 -11 20 2 45 132 259 l145 236
0 3175 0 3175 -360 0 -360 0 0 -2640 0 -2640 -430 0 -430 0 0 2640 0 2640
-370 0 -370 0 0 -1865 0 -1865 -430 0 -430 0 0 1865 0 1865 -395 0 -395 0 0
-2640 0 -2640 -430 0 -430 0 0 2640 0 2640 -385 0 -385 0 0 -3135 0 -3135 157
-257 c86 -141 156 -262 156 -268 0 -9 -668 -1114 -717 -1187 -10 -14 -69 77
-366 564 -195 319 -360 591 -367 603 -11 20 2 45 133 259 l144 236 0 3171 0
3170 918 1907 919 1907 -857 5 -856 5 1764 1923 c970 1058 1769 1921 1775
1919 7 -2 804 -867 1772 -1923z"/>
<path d="M8748 13942 c-98 -202 -213 -441 -256 -532 -44 -91 -173 -358 -287
-595 -114 -236 -229 -475 -255 -530 -26 -55 -144 -300 -262 -545 -118 -245
-238 -492 -265 -550 -28 -58 -144 -298 -258 -535 -114 -236 -238 -494 -275
-572 l-69 -143 2105 0 c1157 0 2104 3 2104 6 0 4 -85 183 -189 398 -104 215
-214 443 -244 506 -30 63 -123 257 -207 430 -84 173 -201 416 -260 540 -59
124 -204 425 -322 670 -119 245 -240 497 -270 560 -31 63 -145 302 -255 530
-111 228 -235 486 -276 573 -42 86 -77 157 -79 157 -2 0 -83 -166 -180 -368z"/>
</g>
</svg>
